<?xml version="1.0" encoding="UTF-8"?>
<svg version="1.1" xmlns="http://www.w3.org/2000/svg" width="1024" height="1024">
<path d="M0 0 C337.92 0 675.84 0 1024 0 C1024 337.92 1024 675.84 1024 1024 C686.08 1024 348.16 1024 0 1024 C0 686.08 0 348.16 0 0 Z " fill="#FEFEFE" transform="translate(0,0)"/>
<path d="M0 0 C337.92 0 675.84 0 1024 0 C1024 337.92 1024 675.84 1024 1024 C686.08 1024 348.16 1024 0 1024 C0 686.08 0 348.16 0 0 Z M145.75 65.75 C144.51334595 66.00269653 144.51334595 66.00269653 143.25170898 66.26049805 C126.43626214 69.91602997 111.01200845 77.78585109 98 89 C97.32582031 89.52980469 96.65164062 90.05960938 95.95703125 90.60546875 C78.04013404 105.08918805 68.24162492 127.86546302 64 150 C63.74631507 151.23914168 63.74631507 151.23914168 63.4875052 152.50331652 C61.33460353 164.88107239 61.71721575 177.37341363 61.74306489 189.89525388 C61.74817417 193.45118678 61.74160435 197.00710235 61.73657823 200.56303275 C61.72937815 206.78518487 61.7295596 213.00730225 61.73467255 219.22945595 C61.74225515 228.48231355 61.73836086 237.73514197 61.73225593 246.98799939 C61.72173607 263.51667017 61.72263266 280.04532547 61.72841376 296.57399772 C61.73344841 311.03992007 61.73475662 325.50583675 61.73236847 339.9717598 C61.7322157 340.93198646 61.73206293 341.89221312 61.73190553 342.88153756 C61.73128283 346.77960769 61.73064603 350.67767782 61.729986 354.57574794 C61.72387011 391.13155892 61.72941141 427.68736004 61.7401798 464.24316949 C61.74966925 496.70411046 61.74882277 529.16503573 61.73925781 561.62597656 C61.72854251 598.11267514 61.72430539 634.59936501 61.73048234 671.08606493 C61.73112375 674.97757951 61.73174944 678.86909409 61.73236847 682.76060867 C61.73252662 683.71876848 61.73268478 684.67692829 61.73284773 685.66412325 C61.73512032 700.11777335 61.73246646 714.57141715 61.72740936 729.02506638 C61.72168587 745.46510682 61.72313106 761.9051294 61.73397085 778.34516762 C61.73983396 787.54007802 61.74024047 796.73494968 61.7326785 805.92985905 C61.72818032 812.07885681 61.73100903 818.22782365 61.73968804 824.37681685 C61.74442602 827.87549387 61.74611341 831.37409419 61.73887607 834.87276869 C61.6789695 871.93854402 67.95914994 905.20874287 94.5 932.875 C120.01233433 957.27616994 154.16341395 961.65958025 187.90212127 961.50146749 C191.46384984 961.48933228 195.02552427 961.50083895 198.58725327 961.50910914 C204.8072254 961.52039293 211.02705076 961.51706493 217.24701691 961.5037384 C226.49652026 961.48397626 235.7459177 961.48740023 244.99543371 961.495239 C260.56458308 961.50774821 276.13367165 961.50149307 291.7028141 961.48405075 C307.11655555 961.46678675 322.53026967 961.45701126 337.94402122 961.45738602 C339.38539817 961.45740895 339.38539817 961.45740895 340.85589385 961.45743235 C344.75700916 961.45751418 348.65812445 961.45764541 352.55923976 961.45784398 C389.11160359 961.4596538 425.66392588 961.43980116 462.2162753 961.40898465 C494.6651043 961.38172853 527.1139038 961.36926267 559.56274414 961.37060547 C561.6471453 961.37068629 563.73154647 961.37076701 565.81594763 961.37084763 C567.36170958 961.37090868 567.36170958 961.37090868 568.93869904 961.37097096 C574.12654609 961.37117257 579.31439313 961.37135373 584.50224018 961.37151146 C585.52580849 961.37154489 586.54937679 961.37157831 587.60396232 961.37161275 C614.75207919 961.37234359 641.90019238 961.36326065 669.04830617 961.35085833 C670.0143723 961.35041779 670.98043843 961.34997724 671.9757793 961.34952335 C675.86018878 961.34774699 679.74459825 961.34597016 683.62900771 961.34414144 C697.12259033 961.33783116 710.61617004 961.33480417 724.10975403 961.33391846 C741.49782811 961.33272267 758.8858779 961.3247017 776.27394161 961.30505554 C785.46201417 961.2948524 794.65005113 961.28999783 803.83812907 961.29304791 C809.9835672 961.29452282 816.12897084 961.28866451 822.27439792 961.27696029 C825.77007585 961.27049643 829.26567951 961.26704436 832.76136092 961.27248149 C869.73973153 961.31321555 904.31724719 956.81149161 932 930 C957.40506358 903.47941663 962.48919319 869.70673033 962.39780539 834.41567194 C962.39192865 830.84711755 962.40359128 827.27860912 962.41286707 823.71006781 C962.42670052 817.47322439 962.42953603 811.2364535 962.42490768 804.99959755 C962.41804268 795.72443483 962.42837494 786.44934488 962.44186524 777.17419229 C962.4667143 759.64005169 962.47129719 742.10594166 962.46939927 724.57178628 C962.46802368 711.02602371 962.47185614 697.48027169 962.47932434 683.93451118 C962.4803747 681.98512088 962.48142232 680.03573057 962.4824672 678.08634027 C962.48324622 676.63472387 962.48324622 676.63472387 962.48404097 675.1537819 C962.48456112 674.18421872 962.48508126 673.21465554 962.48561716 672.21571165 C962.48614115 671.24446553 962.48666514 670.27321942 962.48720502 669.2725416 C962.50177903 641.97228498 962.51007495 614.67203223 962.50545502 587.37177181 C962.50528306 586.34356247 962.50511111 585.31535314 962.50493394 584.25598594 C962.50404512 579.04519072 962.5031003 573.83439551 962.50213593 568.6236003 C962.5019449 567.58881106 962.50175387 566.55402182 962.50155704 565.48787533 C962.50116995 563.39528173 962.50077962 561.30268813 962.50038607 559.21009452 C962.49441819 526.66094867 962.50984876 494.11187396 962.54199219 461.56274414 C962.57811734 424.95102076 962.59739526 388.33934247 962.59245348 351.72760016 C962.59198354 347.81913317 962.59157328 343.91066617 962.59120178 340.00219917 C962.5910994 339.03991349 962.59099701 338.07762781 962.59089152 337.08618196 C962.58969968 322.59749779 962.60162474 308.10886257 962.62034607 293.62019157 C962.6416449 277.12929552 962.64537007 260.63850171 962.62604648 244.147601 C962.61576803 234.93469395 962.61906747 225.7220368 962.64257733 216.50915267 C962.65692562 210.33557095 962.65270376 204.16217199 962.63413157 197.98860225 C962.62408868 194.48405953 962.6213527 190.97999907 962.64145225 187.47548854 C962.80339059 152.15577646 956.67150503 119.18097705 931.21875 93.15625 C906.02529957 68.59683474 870.2294089 61.80443995 836.1890564 61.87136555 C834.47414323 61.86873599 834.47414323 61.86873599 832.72458535 61.86605331 C828.90150169 61.86140903 825.07845632 61.86385478 821.25537109 61.86628723 C818.48342699 61.86496972 815.71148484 61.86215724 812.93954182 61.85942191 C806.91662396 61.85428021 800.89371413 61.85284857 794.8707943 61.85387802 C785.91397887 61.85540519 776.95717231 61.85123621 768.0003586 61.8460034 C751.07018172 61.83633852 734.14000787 61.83351947 717.20982856 61.83294634 C704.13244906 61.83248653 691.05507076 61.83042683 677.97769165 61.82724571 C674.21132247 61.82634814 670.44495328 61.82545833 666.6785841 61.82457083 C665.74220736 61.82434979 664.80583063 61.82412874 663.84107884 61.82390099 C637.50607762 61.81774769 611.1710768 61.81380033 584.83607483 61.81424427 C583.8434152 61.81425985 582.85075557 61.81427543 581.82801535 61.81429148 C576.79698806 61.81437458 571.76596078 61.81447362 566.7349335 61.81457619 C565.73578359 61.81459613 564.73663368 61.81461608 563.7072065 61.81463663 C561.68668136 61.81467706 559.66615621 61.81471886 557.64563106 61.81476202 C526.2189903 61.81537459 494.79236033 61.80787119 463.36572266 61.79418945 C428.04364277 61.77881809 392.72156998 61.77022388 357.39948654 61.77115268 C353.63060252 61.7712273 349.8617185 61.77127601 346.09283447 61.77130699 C345.16486674 61.77131865 344.23689901 61.7713303 343.28081104 61.77134231 C328.36785099 61.77137304 313.45490034 61.76499573 298.54194308 61.75637473 C283.54449502 61.74788442 268.54706065 61.74691906 253.54961151 61.75348405 C244.64862078 61.75717062 235.74767174 61.7553741 226.84668545 61.74554171 C220.88967358 61.73951939 214.93269173 61.74086207 208.9756812 61.74801221 C205.58904411 61.75187484 202.20255252 61.751601 198.81591105 61.74455485 C180.95328831 61.70986709 163.31274022 62.14595733 145.75 65.75 Z " fill="#F4F4F5" transform="translate(0,0)"/>
<path d="M0 0 C1.14378555 -0.00205263 2.28757111 -0.00410527 3.46601683 -0.0062201 C7.27885021 -0.0118512 11.09164702 -0.01043769 14.9044838 -0.00901413 C17.67387809 -0.01105234 20.44327008 -0.01457535 23.21266294 -0.01801753 C30.01297733 -0.02556423 36.81328386 -0.02778889 43.61360201 -0.02834659 C51.76444128 -0.02926354 59.91527336 -0.03594087 68.06610951 -0.04269341 C87.7623526 -0.05872196 107.45859488 -0.06465317 127.15484332 -0.06944216 C136.48026864 -0.07178132 145.80569334 -0.07538433 155.13111818 -0.07913754 C187.07975656 -0.09197044 219.02839461 -0.1026897 250.97703552 -0.10614014 C252.98103224 -0.10636177 254.98502895 -0.10658355 256.98902567 -0.10680549 C258.99774103 -0.10702613 261.0064564 -0.10724661 263.01517177 -0.10746694 C267.04470237 -0.10790948 271.07423298 -0.1083566 275.10376358 -0.10880661 C276.60238753 -0.1089707 276.60238753 -0.1089707 278.13128671 -0.1091381 C310.51139066 -0.11276705 342.8914722 -0.12868232 375.27156756 -0.15199697 C409.54006087 -0.17662603 443.80854137 -0.1903144 478.07704377 -0.19150805 C481.84319576 -0.1916795 485.60934774 -0.19189492 489.37549973 -0.19214249 C490.76640502 -0.19222614 490.76640502 -0.19222614 492.1854094 -0.19231148 C507.06918581 -0.19345926 521.95293911 -0.20445788 536.83670774 -0.21902954 C551.8138557 -0.2334384 566.79097423 -0.23660684 581.76812723 -0.22858956 C590.65011295 -0.22415392 599.53200325 -0.22791056 608.41397631 -0.24382807 C614.36590534 -0.25365303 620.31776829 -0.25232902 626.26969686 -0.24239184 C629.64852759 -0.23705327 633.02703024 -0.23782195 636.40586802 -0.24890056 C671.50944064 -0.35662041 710.06418949 2.24964213 737.95972061 26.13142776 C739.15854874 27.11369339 739.15854874 27.11369339 740.38159561 28.11580276 C761.94653762 46.46609503 771.73061148 72.57406472 774.95972061 100.13142776 C775.59060985 109.11565593 775.50707829 118.1244871 775.46738947 127.12596393 C775.45617126 130.70131786 775.46855165 134.27661216 775.47769696 137.85196143 C775.49050945 144.09590656 775.48871188 150.33970921 775.47691727 156.5836544 C775.45942632 165.86892109 775.46507387 175.15407721 775.47508418 184.43934986 C775.49222093 201.02838873 775.48677071 217.61736123 775.47172699 234.20639868 C775.45864885 248.72231086 775.45348433 263.23820007 775.45604515 277.75411797 C775.45628577 279.2012981 775.45628577 279.2012981 775.45653126 280.6777142 C775.4571949 284.59456788 775.45789732 288.51142154 775.4586566 292.4282752 C775.465672 329.12965872 775.45021775 365.83100183 775.42403314 402.53237507 C775.4009146 435.10878097 775.39553288 467.68514247 775.40576553 500.26155472 C775.40836774 508.60635342 775.41095282 516.95115213 775.41336346 525.29595089 C775.4136609 526.32343416 775.41395835 527.35091743 775.41426481 528.40953656 C775.42188613 555.66784547 775.41546189 582.92615078 775.40466744 610.18445808 C775.40351969 613.11873306 775.40237651 616.05300805 775.40124061 618.98728304 C775.40048537 620.93362217 775.39971972 622.87996131 775.3989436 624.82630044 C775.39329495 639.33188491 775.39460864 653.83745787 775.39917183 668.34304237 C775.40428817 684.84100479 775.39838868 701.33892427 775.37827753 717.836876 C775.36732234 727.06009382 775.36446903 736.28322718 775.37356606 745.50644751 C775.37880975 751.67786755 775.37302517 757.84921572 775.35851272 764.02062071 C775.35055725 767.52952347 775.34710262 771.03825635 775.35708528 774.54715785 C775.42712228 806.90024596 771.29128362 838.01963 748.95972061 863.13142776 C748.35901749 863.87392776 747.75831436 864.61642776 747.13940811 865.38142776 C730.73361977 885.15074594 704.46744925 895.76848801 679.38323142 898.40191657 C672.13077495 899.04503484 664.95350231 899.27565865 657.67490959 899.26564884 C656.4925465 899.26800107 655.3101834 899.2703533 654.09199113 899.27277681 C650.83173988 899.27825813 647.57152268 899.27934349 644.31126808 899.2784994 C640.75592114 899.27867015 637.20058277 899.28459009 633.64524019 899.28974026 C626.60333292 899.29903115 619.56143193 899.30298235 612.5195193 899.30525923 C604.08047012 899.30823045 595.64142921 899.31693313 587.20238439 899.32567351 C566.80937743 899.3464802 546.41636905 899.35698133 526.02335396 899.36580312 C516.37028096 899.37001459 506.71720858 899.37523586 497.0641361 899.38048765 C464.00029807 899.39837359 430.93645986 899.41336867 397.87261772 899.42080784 C395.79837367 899.42128259 393.72412961 899.42175848 391.64988556 899.4222355 C390.10698458 899.42259006 390.10698458 899.42259006 388.53291388 899.42295179 C383.32182992 899.42415295 378.11074597 899.42536841 372.89966202 899.42659378 C371.86552284 899.42683393 370.83138366 899.42707408 369.76590693 899.42732151 C336.24260236 899.43521305 302.71933318 899.4586441 269.19604406 899.49114972 C233.72688152 899.52547918 198.25773969 899.54516178 162.78856027 899.54845208 C158.89185166 899.5488696 154.99514305 899.54934916 151.09843445 899.54987526 C150.13900302 899.54999845 149.1795716 899.55012164 148.1910665 899.55024857 C132.77941891 899.55257651 117.36781259 899.56821348 101.95617968 899.58871711 C86.45357957 899.60901394 70.9510288 899.61443415 55.44841786 899.60494647 C46.25028612 899.5997468 37.05231919 899.6055362 27.85421131 899.62748114 C21.69534493 899.64105867 15.53659111 899.63985139 9.37772343 899.62707919 C5.87822264 899.62022849 2.37903529 899.61935232 -1.12043659 899.63663927 C-33.74519865 899.76795219 -66.15083246 895.11268377 -91.04027939 872.13142776 C-91.73121689 871.52041214 -92.42215439 870.90939651 -93.13402939 870.27986526 C-104.25608595 859.90810617 -111.1841965 846.95521342 -117.04027939 833.13142776 C-117.46180283 832.16591995 -117.88332626 831.20041214 -118.31762314 830.20564651 C-121.54216879 822.18687074 -122.83165787 813.65162012 -124.04027939 805.13142776 C-124.29369521 803.44462945 -124.29369521 803.44462945 -124.55223054 801.72375441 C-125.22512045 796.2741506 -125.18198443 790.84398064 -125.17450047 785.36001205 C-125.1768527 784.1845519 -125.17920493 783.00909176 -125.18162844 781.7980116 C-125.18713398 778.53845824 -125.18819227 775.27893871 -125.18735103 772.01938193 C-125.18752108 768.47171517 -125.19343338 764.92405712 -125.19859189 761.37639475 C-125.20790433 754.34116234 -125.21183765 747.30593623 -125.21411085 740.27069843 C-125.21707654 731.84276463 -125.22577622 723.41483915 -125.23452513 714.98690972 C-125.25535765 694.61448317 -125.26583823 674.24205519 -125.27465474 653.86962047 C-125.27886375 644.22679636 -125.28408546 634.58397287 -125.28933927 624.94114928 C-125.30723019 591.91664302 -125.32222427 558.89213657 -125.32965946 525.86762619 C-125.33013422 523.79472583 -125.3306101 521.72182546 -125.33108712 519.6489251 C-125.3313235 518.62097543 -125.33155988 517.59302576 -125.33180342 516.53392611 C-125.33300458 511.32602952 -125.33422004 506.11813294 -125.3354454 500.91023636 C-125.33568555 499.87672199 -125.3359257 498.84320763 -125.33617313 497.77837465 C-125.34406105 464.29081922 -125.36748205 430.80329926 -125.40000135 397.31575931 C-125.43433867 361.89120253 -125.4540143 326.46666649 -125.4573037 291.0420928 C-125.45772122 287.14921791 -125.45820078 283.25634304 -125.45872688 279.36346817 C-125.45885007 278.40496874 -125.45897327 277.44646931 -125.45910019 276.45892445 C-125.46142756 261.06604864 -125.47706182 245.67321417 -125.49756873 230.28035307 C-125.51787628 214.79067265 -125.52328082 199.30104162 -125.5137981 183.81135035 C-125.50860198 174.62254667 -125.51437067 165.43390805 -125.53633277 156.2451283 C-125.54992564 150.08978528 -125.54868972 143.93455479 -125.53593081 137.77921042 C-125.52908996 134.28329182 -125.52816892 130.78768673 -125.5454909 127.29179722 C-125.6363298 104.78104555 -124.37302535 82.90205036 -115.04027939 62.13142776 C-114.57750595 61.06924026 -114.11473251 60.00705276 -113.63793564 58.91267776 C-110.06424067 51.23071851 -105.3576584 44.70049221 -100.04027939 38.13142776 C-99.41379501 37.33865433 -98.78731064 36.54588089 -98.14184189 35.72908401 C-79.50490267 13.35689327 -50.20309821 3.61083839 -22.07737051 0.83947845 C-14.70342842 0.25167795 -7.39570049 -0.01260221 0 0 Z M-82.55981064 49.18611526 C-99.8700234 69.74028916 -105.21570288 94.73573573 -105.17170715 121.08013439 C-105.17375979 122.2383056 -105.17581242 123.39647681 -105.17792726 124.58974412 C-105.1825871 127.78679678 -105.18283018 130.98381348 -105.18114967 134.18086793 C-105.18041427 137.66593652 -105.18545151 141.15099776 -105.18972468 144.63606316 C-105.19728106 151.54034352 -105.19949654 158.44461614 -105.20005374 165.34890021 C-105.20096972 173.62232259 -105.20764416 181.89573787 -105.21440056 190.16915718 C-105.23043857 210.16229532 -105.23636126 230.15543267 -105.24114931 250.14857608 C-105.24348738 259.61140138 -105.24709025 269.07422608 -105.25084469 278.5370509 C-105.26367801 310.94600109 -105.27439757 343.35495095 -105.27784729 375.76390362 C-105.27806892 377.79723019 -105.2782907 379.83055675 -105.27851264 381.86388332 C-105.27873328 383.90204114 -105.27895376 385.94019896 -105.27917409 387.97835678 C-105.27961663 392.06705948 -105.28006375 396.15576218 -105.28051376 400.24446487 C-105.28062315 401.25822066 -105.28073255 402.27197645 -105.28084525 403.31645211 C-105.28447521 436.18138718 -105.3003941 469.04630018 -105.32370413 501.9112268 C-105.34831905 536.67967113 -105.36202089 571.44810284 -105.36321521 606.21655613 C-105.36338665 610.03573009 -105.36360208 613.85490404 -105.36384964 617.67407799 C-105.36390541 618.61442665 -105.36396118 619.55477531 -105.36401864 620.52361939 C-105.3651676 635.63351263 -105.37617632 650.74338316 -105.3907367 665.85326874 C-105.40512731 681.05013485 -105.40832421 696.24697195 -105.40029672 711.443843 C-105.39585264 720.46239811 -105.399652 729.48085935 -105.41553522 738.49940205 C-105.42533041 744.53605354 -105.42406397 750.57263972 -105.414099 756.6092907 C-105.40873943 760.04064612 -105.40958034 763.47167712 -105.42060772 766.9030401 C-105.51093916 796.9257336 -103.08262651 829.33275035 -81.09472275 852.13020706 C-79.7546167 853.4753762 -78.39794189 854.8039803 -77.04027939 856.13142776 C-76.41895126 856.78498245 -75.79762314 857.43853714 -75.15746689 858.11189651 C-58.52826542 874.40553114 -32.01540258 879.47765654 -9.69933414 879.38590336 C-7.93492396 879.39071308 -7.93492396 879.39071308 -6.13486913 879.39561996 C-2.89634539 879.40244709 0.34202785 879.4004456 3.58054875 879.39456423 C7.11398171 879.39036747 10.6473943 879.39781078 14.18082219 879.40371674 C20.36507527 879.41245559 26.54929522 879.41379912 32.73355293 879.41021347 C41.93018265 879.40489539 51.12678044 879.41101291 60.32340669 879.4192964 C77.7064403 879.43452348 95.08945932 879.43624277 112.4724982 879.43377338 C125.89833329 879.43193944 139.3241636 879.43370244 152.74999809 879.43799782 C154.6801155 879.43860022 156.61023291 879.43920142 158.54035032 879.43980142 C161.44900487 879.44070869 164.35765941 879.44161736 167.26631395 879.44253377 C194.30435833 879.45096149 221.34240092 879.45530028 248.38044643 879.45112705 C249.90886288 879.45089249 249.90886288 879.45089249 251.46815643 879.45065319 C256.63234792 879.44984743 261.7965394 879.44900165 266.96073087 879.44813988 C267.98632021 879.4479688 269.01190955 879.44779771 270.06857736 879.44762144 C272.14256772 879.44727478 274.21655808 879.44692625 276.29054844 879.44657585 C308.55666677 879.44121951 340.82275777 879.44914734 373.088871 879.46760941 C409.35694091 879.48833711 445.62499388 879.4990506 481.89307004 879.49503392 C485.76216813 879.49463859 489.63126621 879.49427704 493.5003643 879.49393654 C494.45300317 879.49384581 495.40564203 879.49375508 496.38714874 879.49366159 C510.75262139 879.49249683 525.11807692 879.49913473 539.4835453 879.50974846 C555.82694027 879.52181138 572.17029758 879.52334687 588.51369312 879.51095829 C597.65265243 879.50434036 606.79152162 879.50593608 615.93047368 879.51954681 C622.04476382 879.52781579 628.15898674 879.52506208 634.27327146 879.51357154 C637.7505307 879.50733926 641.22761462 879.50565109 644.70486345 879.51743487 C674.62217608 879.59831723 703.64478818 876.84664207 726.95972061 856.13142776 C727.59522842 855.56681839 728.23073624 855.00220901 728.88550186 854.42049026 C747.79225025 836.5617878 754.41282436 809.87468755 755.23564994 784.7254715 C755.37029894 778.05903443 755.37071001 771.39330722 755.35132464 764.72577021 C755.34451811 761.21911959 755.35532855 757.71251085 755.36372048 754.20586967 C755.37600793 748.08095808 755.37733443 741.95612317 755.37117004 735.83120346 C755.36202771 726.72278767 755.37015179 717.61444202 755.38146128 708.50603157 C755.40107117 692.23239545 755.40348663 675.95879128 755.39826608 659.68514615 C755.39369988 645.44337908 755.39431934 631.20162461 755.40010643 616.95985794 C755.40086331 615.04572729 755.40161929 613.13159665 755.40237438 611.217466 C755.40351963 608.33268067 755.40466951 605.44789535 755.40583362 602.56311003 C755.41652963 575.76368723 755.42127298 548.9642686 755.41336346 522.16484451 C755.41306628 521.1558183 755.41276911 520.14679208 755.41246293 519.10718931 C755.41001426 510.91439464 755.40740254 502.72160002 755.4047788 494.5288054 C755.39467543 462.57015436 755.40303714 430.61155586 755.42627335 398.65291214 C755.45236791 362.70520628 755.46518827 326.75753204 755.4580856 290.80981636 C755.45736958 286.97421011 755.45669519 283.13860385 755.45604515 279.30299759 C755.45579044 277.88647433 755.45579044 277.88647433 755.45553058 276.44133444 C755.45323165 262.21230812 755.461185 247.98331125 755.47433662 233.75429153 C755.48927196 217.56707185 755.49005859 201.37992101 755.47226571 185.19270277 C755.46272925 176.14540173 755.46408314 167.09826146 755.4815004 158.05097128 C755.49203979 151.99422861 755.48781993 145.93760758 755.47202037 139.88087677 C755.46344254 136.43905111 755.46082913 132.99753889 755.47628968 129.5557301 C755.58447444 99.19428791 751.84223537 69.49297261 729.70190811 46.81502151 C702.65009131 20.34123498 664.44591917 19.9748361 628.91716385 19.997715 C626.16167883 19.99639557 623.40619576 19.99358316 620.65071183 19.99084967 C614.67617646 19.98571948 608.70164918 19.98427431 602.72711182 19.98530579 C593.84235789 19.98683592 584.95761287 19.98265752 576.07286068 19.97743116 C559.27903501 19.96777784 542.4852124 19.96494769 525.69138428 19.9643741 C512.72088059 19.963914 499.7503781 19.96185273 486.7798748 19.95867348 C483.04206493 19.9577759 479.30425505 19.95688608 475.56644517 19.9559986 C474.63713937 19.95577755 473.70783357 19.9555565 472.75036698 19.95532876 C446.62398306 19.94917775 420.49759955 19.94522788 394.37121487 19.94567204 C393.38690838 19.94568761 392.4026019 19.94570319 391.38846795 19.94571924 C386.39993876 19.94580235 381.41140957 19.94590139 376.42288037 19.94600395 C375.43219333 19.9460239 374.44150628 19.94604384 373.42079841 19.94606439 C371.41739044 19.94610483 369.41398247 19.94614663 367.4105745 19.94618978 C336.23839393 19.94680258 305.06622424 19.93929377 273.89404678 19.92561722 C238.84845418 19.91024746 203.80286873 19.9016515 168.75727254 19.90258044 C165.0185196 19.90265507 161.27976666 19.90270378 157.54101372 19.90273476 C156.16021362 19.90275224 156.16021362 19.90275224 154.75151856 19.90277007 C139.95759947 19.90280081 125.16368984 19.89642346 110.36977356 19.88780249 C95.49605377 19.8793144 80.62234779 19.87834515 65.74862691 19.88491181 C56.9207242 19.88859945 48.09286353 19.88679861 39.2649653 19.87696947 C33.35809001 19.87095014 27.45124501 19.87228654 21.54437108 19.87943997 C18.18561969 19.88330501 14.8270151 19.88302361 11.46825924 19.87598262 C-23.4877776 19.80758287 -56.94197007 22.55007753 -82.55981064 49.18611526 Z " fill="#1D7DB9" transform="translate(187.04027938842773,61.86857223510742)"/>
<path d="M0 0 C3.4571063 1.94104315 6.0566372 4.23141831 8.81138897 7.02828026 C9.34117708 7.55409396 9.87096518 8.07990766 10.41680747 8.62165511 C12.18107622 10.37633899 13.93447101 12.14149096 15.68805218 13.90685081 C16.95436102 15.17073046 18.22131507 16.43396395 19.48886395 17.69659996 C22.92323169 21.12157319 26.34813127 24.55587154 29.77113223 27.99220037 C33.3563927 31.58878822 36.94937407 35.17764824 40.54127789 38.76759911 C46.57117284 44.79661155 52.59506269 50.83157285 58.61529827 56.87022972 C65.57427114 63.85037429 72.54203642 70.82164406 79.51472062 77.78809011 C86.22460633 84.49228016 92.92880483 91.20212843 99.6302309 97.91477394 C102.48128354 100.77046937 105.33420948 103.62427374 108.18863773 106.47659492 C111.54951503 109.83558785 114.90534974 113.19953956 118.25736141 116.567379 C119.48797573 117.80223369 120.72028715 119.0353998 121.95441532 120.26674271 C123.63927825 121.94837959 125.3178548 123.63605317 126.99498272 125.3253994 C127.48408381 125.81072116 127.97318489 126.29604293 128.47710723 126.79607141 C131.73590426 130.09695133 134.78164573 133.37380214 135.61114788 138.04991722 C135.60341351 138.77308128 135.59567913 139.49624535 135.58771038 140.24132347 C135.59544476 140.96190941 135.60317913 141.68249535 135.61114788 142.42491722 C134.61473689 148.37407693 131.01887313 152.43358346 126.85504436 156.53380394 C126.32137249 157.07112648 125.78770061 157.60844902 125.23785686 158.16205406 C123.48546754 159.9224997 121.72252718 161.6719261 119.95880413 163.42101097 C118.73425827 164.6450379 117.51023115 165.86958399 116.28670025 167.09462547 C113.72839864 169.65283759 111.16502782 172.20582215 108.59772015 174.75499535 C105.30143024 178.0285149 102.01641865 181.31308328 98.73486519 184.60136795 C96.21230781 187.12725874 93.68480496 189.64815133 91.15565968 192.16744423 C89.94183194 193.37741512 88.72935902 194.58874667 87.51825047 195.80143929 C85.8307043 197.48935455 84.13683743 199.1706492 82.44098186 200.85021019 C81.93859493 201.35507454 81.436208 201.85993889 80.91859722 202.38010216 C77.44146034 205.80382347 77.44146034 205.80382347 75.21271038 205.80382347 C74.94627728 206.40073997 74.67984417 206.99765648 74.40533733 207.61266136 C73.18547868 209.85385509 72.01278072 211.16142089 70.13067913 212.86241722 C69.52804241 213.41349144 68.92540569 213.96456566 68.30450726 214.5323391 C67.67608929 215.09630394 67.04767132 215.66026878 66.40021038 216.24132347 C65.16371363 217.36411937 63.92802305 218.48780379 62.69317913 219.61241722 C62.14556927 220.10540306 61.5979594 220.5983889 61.0337553 221.10631371 C56.84725827 225.00880919 52.87660125 229.14517793 48.84332561 233.20494652 C43.65928822 238.42155966 38.47024772 243.63316527 33.27827644 248.84188175 C30.14414854 251.98648249 27.01193445 255.13294345 23.88385296 258.2835598 C20.84800461 261.34112858 17.80730457 264.39379386 14.7631731 267.44311523 C13.60640189 268.60357751 12.4513904 269.76579671 11.29818821 270.92980576 C9.68765 272.55485245 8.07097052 274.17354175 6.45270061 275.79088402 C5.53512478 276.71290108 4.61754894 277.63491814 3.67216778 278.58487511 C-0.36055987 282.22324446 -3.24641267 283.29226588 -8.77947712 283.10851097 C-14.61254496 282.22333725 -18.59075852 277.16598274 -22.46697712 273.09679222 C-24.33955717 271.24627961 -26.22973826 269.55597036 -28.23020649 267.85155296 C-33.72675499 263.05552233 -38.85908197 257.89605941 -44.0209322 252.74718285 C-45.13035189 251.64404148 -46.2399559 250.54108544 -47.34972858 249.43829918 C-50.96395598 245.84492779 -54.57301502 242.24638825 -58.18182087 238.64757347 C-59.42986815 237.40357875 -60.67794764 236.15961632 -61.92605877 234.91568565 C-67.78427714 229.07646745 -73.64011707 223.23487697 -79.49302274 217.39033365 C-86.23504718 210.65810394 -92.98529236 203.93425824 -99.742544 197.21731329 C-104.97861773 192.01139974 -110.2069915 186.79783313 -115.42966288 181.57847452 C-118.54407009 178.46641504 -121.6616793 175.3577331 -124.78748226 172.25711632 C-127.72411878 169.34376795 -130.65107698 166.42103241 -133.57095051 163.49088669 C-134.64177096 162.41957119 -135.7160017 161.35165157 -136.79391766 160.28747559 C-138.26889741 158.83024805 -139.73090234 157.36108751 -141.19044209 155.8884182 C-142.01058702 155.07066162 -142.83073195 154.25290504 -143.67572975 153.41036797 C-146.89075298 149.44169001 -149.40472145 144.74763999 -149.03728962 139.49132347 C-148.29905766 135.41203136 -146.78957705 133.30474245 -143.98048115 130.29125023 C-143.1639488 129.4143705 -142.34741646 128.53749077 -141.50614071 127.63403893 C-136.5445232 122.46919316 -131.51163742 117.38039085 -126.44622517 112.31749535 C-125.2295314 111.09780249 -124.01304044 109.8779073 -122.79673481 108.65782738 C-119.52265293 105.37498684 -116.24540613 102.09532431 -112.96726298 98.81653976 C-110.91714203 96.76570474 -108.86773609 94.71415797 -106.81857967 92.66235924 C-99.66475237 85.49931213 -92.50837904 78.33882031 -85.34954548 71.1807766 C-78.68119204 64.51302609 -72.01846135 57.83969299 -65.35828656 51.16377401 C-59.6283196 45.4207457 -53.89451837 39.68156485 -48.15769702 33.94538355 C-44.73593926 30.52388078 -41.31575361 27.10084181 -37.89941692 23.6739254 C-34.69363548 20.45848436 -31.48311714 17.24785071 -28.26885891 14.04088402 C-27.09000087 12.86307382 -25.9128529 11.68354918 -24.73753834 10.50220299 C-23.13469057 8.89166204 -21.52581878 7.28739034 -19.91526508 5.68456078 C-19.01622298 4.78497391 -18.11718088 3.88538704 -17.19089508 2.95853996 C-12.0187789 -1.67801301 -6.44795764 -2.7671669 0 0 Z " fill="#CC232D" transform="translate(524.7872896194458,547.1961765289307)"/>
<path d="M0 0 C4.92125787 2.53996755 8.78698075 5.35238243 12.68096924 9.30674744 C13.20752822 9.82933201 13.7340872 10.35191658 14.27660251 10.89033705 C16.02393333 12.62810994 17.76042208 14.37631233 19.49707031 16.12475586 C20.753675 17.37893049 22.01092488 18.63245897 23.26876831 19.88539124 C26.67208 23.27932118 30.06594113 26.68255701 33.4578867 30.08784175 C37.01243885 33.65373316 40.57472424 37.21188447 44.13592529 40.77113342 C50.11276531 46.74709142 56.08360508 52.72899285 62.05078125 58.71459961 C68.94785454 65.63285357 75.85373002 72.54222222 82.76451802 79.44677442 C89.41727461 86.09383552 96.06434445 92.74655413 102.70864105 99.402071 C105.53457431 102.23264629 108.36237987 105.06133137 111.19168854 107.88853264 C114.52221051 111.21717028 117.84768973 114.55076614 121.16934586 117.88825035 C122.38867322 119.11181786 123.60969741 120.33369713 124.8325386 121.5537529 C126.50202186 123.22000983 128.16521703 124.89230293 129.82696533 126.56626892 C130.75902424 127.5003807 131.69108315 128.43449247 132.65138626 129.39691067 C136.63666298 133.81399771 138.3239794 136.79632778 138.3984375 142.83984375 C137.32823568 148.64201638 133.77093755 152.66477196 129.69961548 156.68133545 C129.16563467 157.21999623 128.63165387 157.758657 128.08149183 158.31364083 C126.29917472 160.10787693 124.50638363 161.89125369 122.71337891 163.67480469 C121.42980235 164.96244825 120.14686447 166.25072874 118.86451721 167.53959656 C115.38593204 171.03184419 111.8979409 174.51455248 108.40776491 177.9952116 C104.75541579 181.6399603 101.11039773 185.29202871 97.46420288 188.94293213 C91.3412235 195.07136723 85.21195052 201.19345444 79.07910156 207.31201172 C71.98831629 214.38646361 64.90841305 221.47166805 57.83405173 228.56254077 C51.75880338 234.65140045 45.67773142 240.73439753 39.5917486 246.81252789 C35.95725474 250.44234426 32.3248193 254.07415816 28.69762039 257.71126556 C25.28824352 261.12930486 21.87161815 264.53992852 18.44924736 267.94495583 C17.19416134 269.19607349 15.94162421 270.44975411 14.69183159 271.70615959 C12.98617889 273.42000354 11.2715644 275.12434928 9.55435181 276.82659912 C9.06124815 277.32639495 8.56814449 277.82619077 8.06009829 278.34113193 C4.40139568 281.93820433 1.26021645 283.58905155 -3.75 284.5 C-10.78002537 283.41845763 -16.31117205 278.07956362 -21 273 C-21.928125 272.113125 -22.85625 271.22625 -23.8125 270.3125 C-26 268 -26 268 -26 266 C-26.56279883 265.76196309 -27.12559767 265.52392618 -27.70545101 265.27867603 C-30.51521589 263.71288727 -32.43567966 261.81618942 -34.71278381 259.54118347 C-35.17144268 259.08564459 -35.63010155 258.6301057 -36.10265917 258.16076261 C-37.6358093 256.63557929 -39.16172375 255.10335941 -40.68774414 253.57104492 C-41.78648665 252.47501289 -42.88565409 251.37940671 -43.98521423 250.28419495 C-46.96912058 247.30940912 -49.9466622 244.32832779 -52.9228394 241.34581161 C-56.03878295 238.22480508 -59.15960271 235.1086807 -62.27964783 231.99177551 C-67.51954561 226.75551704 -72.75521099 221.51505437 -77.98852539 216.2722168 C-84.03665329 210.21321011 -90.09194478 204.16143441 -96.15101916 198.11337584 C-101.35394387 192.91953177 -106.5529549 187.72179427 -111.74872488 182.52079278 C-114.85146114 179.41494038 -117.95552828 176.3104505 -121.06312752 173.20946312 C-123.98558732 170.2927872 -126.90309856 167.37124944 -129.81688881 164.44591331 C-130.88624045 163.37392044 -131.95729165 162.30361981 -133.03017044 161.23515701 C-134.49619502 159.77461058 -135.95589999 158.30802109 -137.41419983 156.83976746 C-138.23216569 156.02104754 -139.05013155 155.20232763 -139.89288425 154.35879803 C-143.35520091 150.4829285 -145.4291901 147.32266753 -145.4375 142.0625 C-145.45683594 141.24910156 -145.47617187 140.43570313 -145.49609375 139.59765625 C-144.37633156 133.73433453 -139.76039826 129.4688048 -135.64855957 125.39459229 C-135.12118588 124.86409861 -134.59381219 124.33360494 -134.05045748 123.7870357 C-132.29420773 122.02285228 -130.53094885 120.26585258 -128.76757812 118.50878906 C-127.50214378 117.24064287 -126.23713492 115.97207199 -124.97251892 114.70310974 C-121.54544561 111.26693515 -118.11209591 107.8370972 -114.67729759 104.40864658 C-111.08203836 100.81845681 -107.49166808 97.22338319 -103.9005127 93.62908936 C-97.87167614 87.59661686 -91.83864055 81.56836791 -85.80322266 75.54248047 C-78.82392811 68.5740796 -71.85188105 61.59848968 -64.88353586 54.61914086 C-58.89901138 48.6255447 -52.91060352 42.6358495 -46.91892385 36.64940619 C-43.3408504 33.07445182 -39.76414451 29.49815737 -36.19093323 25.91834259 C-32.83347314 22.55511109 -29.4711695 19.19679863 -26.10504341 15.84224129 C-24.86975742 14.60960253 -23.63617529 13.37525357 -22.40441704 12.13908958 C-20.72466877 10.45388734 -19.03889948 8.77494907 -17.35144043 7.09747314 C-16.86388794 6.60545922 -16.37633546 6.11344529 -15.87400866 5.60652184 C-11.13750224 0.92432548 -6.80027725 -1.36700633 0 0 Z " fill="#0E41A5" transform="translate(522,223)"/>
<path d="M0 0 C0.82242188 -0.02835937 1.64484375 -0.05671875 2.4921875 -0.0859375 C8.58411803 0.98060227 12.94765701 5.91284732 17.14282227 10.16577148 C17.71112762 10.73378479 18.27943298 11.3017981 18.86495972 11.88702393 C20.72855992 13.75200892 22.58498558 15.6239644 24.44140625 17.49609375 C25.74320816 18.80163123 27.04545636 20.10672383 28.34812927 21.41139221 C31.76843493 24.83931157 35.18269646 28.27318941 38.59570312 31.70837402 C42.06214588 35.19524807 45.53422266 38.67650166 49.00585938 42.15820312 C54.61616388 47.78605269 60.22306092 53.41726956 65.82533264 59.05311584 C67.2580706 60.49422574 68.69151819 61.93463002 70.125 63.375 C71.02439804 64.27956436 71.92379608 65.18412872 72.85044861 66.11610413 C75.04224452 68.29281412 77.29870736 70.34358952 79.625 72.375 C82.35527052 74.75917989 84.97160473 77.20676786 87.52838135 79.77514648 C89.45123751 81.70189849 91.38390237 83.61857283 93.31689453 85.53515625 C97.69184171 89.87438889 102.06057965 94.21981815 106.42724609 98.56738281 C108.31088287 100.44091879 110.19630464 102.31266184 112.08349609 104.18261719 C114.81299607 106.88786973 117.53599628 109.59951952 120.2578125 112.3125 C121.10159454 113.14595947 121.94537659 113.97941895 122.81472778 114.83813477 C123.99142532 116.01460571 123.99142532 116.01460571 125.19189453 117.21484375 C125.88074738 117.89925537 126.56960022 118.58366699 127.27932739 119.28881836 C130.39426185 122.80965897 132.55387511 125.97181192 132.5625 130.75 C132.59150391 131.81347656 132.59150391 131.81347656 132.62109375 132.8984375 C130.98796517 141.05122114 124.36184134 146.55255054 118.70996094 152.14648438 C117.74635706 153.1108803 116.78340765 154.07593053 115.82106018 155.0415802 C113.21811054 157.64964099 110.60597038 160.24831201 107.99189663 162.84521675 C105.24789295 165.57411242 102.51206631 168.3111833 99.77520752 171.04724121 C95.17692164 175.64184034 90.57304979 180.23077859 85.96533203 184.81591797 C80.06934438 190.6830714 74.1826101 196.55941782 68.29879379 202.43877411 C63.21985186 207.5137197 58.13666409 212.58440657 53.05280018 217.65442085 C51.42911914 219.27402406 49.80600904 220.89419776 48.18297577 222.51445007 C45.62122363 225.07126626 43.05682006 227.62539557 40.49043083 230.17755699 C39.11156434 231.54982657 37.73503228 232.9244406 36.3585968 234.29914856 C31.97198886 238.65587386 27.53275641 242.87507043 22.81648636 246.87447357 C19.63403497 249.69764291 16.92247524 252.95149972 14.171875 256.1875 C10.08485667 260.82423425 6.36440715 263.04992477 0.25 263.9375 C-9.36108204 263.47227169 -17.09789454 252.39468715 -23.41796875 245.9921875 C-24.51505236 244.8888191 -25.61266233 243.78597384 -26.71076965 242.68362427 C-29.5818178 239.79936405 -32.44722127 236.90956822 -35.31097412 234.01806641 C-39.90263271 229.38304651 -44.50119975 224.75490545 -49.10302162 220.12997818 C-50.70126448 218.52157738 -52.29601607 216.90977554 -53.89042664 215.2975769 C-54.87499413 214.30617779 -55.8596735 213.31488976 -56.84448242 212.32373047 C-57.69749435 211.46246552 -58.55050629 210.60120056 -59.42936707 209.71383667 C-61.80953333 207.43760786 -64.28297846 205.40347365 -66.875 203.375 C-69.1875 201.25 -69.1875 201.25 -70.875 199.375 C-70.875 198.715 -70.875 198.055 -70.875 197.375 C-71.42437729 197.14995789 -71.97375458 196.92491577 -72.53977966 196.6930542 C-75.55700958 194.99005748 -77.81537977 192.7216345 -80.23852539 190.28613281 C-80.76098343 189.76878571 -81.28344147 189.2514386 -81.82173157 188.71841431 C-83.54390172 187.0101209 -85.25856464 185.29452165 -86.97265625 183.578125 C-88.17022613 182.38444352 -89.36801896 181.19098566 -90.56602478 179.9977417 C-93.07518987 177.49603502 -95.5804483 174.99049213 -98.08325195 172.48242188 C-101.28483114 169.27505321 -104.497618 166.07918171 -107.71367741 162.88634109 C-110.19052384 160.42425618 -112.66037693 157.95524722 -115.12829399 155.48421478 C-116.30965001 154.30337091 -117.49336074 153.12487778 -118.67949104 151.94882965 C-120.34057503 150.30013725 -121.99176606 148.64211025 -123.64086914 146.98144531 C-124.37267395 146.26110611 -124.37267395 146.26110611 -125.1192627 145.5262146 C-129.11712578 141.46640809 -131.58811583 137.62908992 -132.3125 131.9375 C-131.48851155 125.22787975 -127.55689688 120.68177644 -122.90319824 116.02897644 C-122.41666008 115.53846387 -121.93012191 115.04795129 -121.42884016 114.5425747 C-119.81309821 112.91728553 -118.18695701 111.30284046 -116.56054688 109.68823242 C-115.39341865 108.51867382 -114.22693661 107.34847007 -113.06105042 106.17767334 C-109.90477859 103.01202531 -106.7392146 99.85582514 -103.57158852 96.70154357 C-100.25480322 93.39610082 -96.94576165 90.08292169 -93.63562012 86.77082825 C-88.07917097 81.21349733 -82.51678276 75.66216662 -76.95068359 70.11450195 C-70.51523493 63.70024512 -64.08868714 57.27717676 -57.66694403 50.84920043 C-51.4854698 44.66203362 -45.29834417 38.48054967 -39.1084137 32.30184364 C-36.47517751 29.67325217 -33.84383545 27.04278581 -31.213974 24.4108181 C-28.11925828 21.31421998 -25.01959703 18.22265849 -21.91602898 15.13493347 C-20.77750476 14.00065408 -19.64067471 12.86467128 -18.50566292 11.72687721 C-16.95728369 10.17527856 -15.4028943 8.62996266 -13.84680176 7.08610535 C-12.97813728 6.21949374 -12.10947281 5.35288214 -11.21448517 4.46000957 C-7.57154948 1.21333125 -4.85946186 0.07569255 0 0 Z " fill="#1C9841" transform="translate(687.875,393.625)"/>
<path d="M0 0 C0.82242188 -0.02835937 1.64484375 -0.05671875 2.4921875 -0.0859375 C8.178784 0.90963874 12.31141824 5.31094715 16.26811218 9.2641449 C16.74889766 9.74181039 17.22968314 10.21947589 17.72503787 10.7116161 C19.32105056 12.2997061 20.90988317 13.89478254 22.4987793 15.48999023 C23.64707818 16.63557675 24.79580161 17.78073786 25.94491577 18.92550659 C29.05472001 22.0262149 32.15819076 25.13319005 35.26027274 28.24162173 C38.51099692 31.49741914 41.76660904 34.74832301 45.0214386 38.00001526 C50.48477368 43.45971507 55.94388572 48.92361085 61.40063477 54.38989258 C67.70668765 60.70683459 74.01992045 67.0165321 80.33692044 73.32252544 C85.76493569 78.74146181 91.18904003 84.16428967 96.60990077 89.59038311 C99.84562871 92.82922673 103.08268717 96.06670945 106.32327843 99.30068779 C109.36887939 102.34050702 112.40953766 105.38518571 115.44646835 108.43366623 C116.56097299 109.55081277 117.67717828 110.66626567 118.79520988 111.77988243 C120.3224309 113.30162826 121.84334249 114.82941774 123.36283875 116.35887146 C124.21507869 117.21186545 125.06731863 118.06485945 125.94538403 118.94370174 C129.2497916 122.62967233 131.55396413 125.76685366 131.5 130.8125 C131.50773437 131.53308594 131.51546875 132.25367188 131.5234375 132.99609375 C130.58480398 138.60028802 127.40610031 142.46891535 123.48777771 146.38644409 C123.02518415 146.85301206 122.56259059 147.31958002 122.08597904 147.80028641 C120.54538769 149.35044638 118.99437876 150.88972479 117.44311523 152.42919922 C116.33200161 153.54274248 115.22153421 154.65693087 114.11166382 155.77171326 C111.10422579 158.78853645 108.0874869 161.79589565 105.06869388 164.80135107 C101.91112897 167.94758671 98.76129421 171.10154464 95.61036682 174.25442505 C90.32201918 179.54365474 85.02773025 184.82687894 79.72973633 190.10644531 C73.59816169 196.21681544 67.47550403 202.33600876 61.35763973 208.46010387 C55.47462697 214.34880192 49.58597565 220.23182829 43.69450569 226.11206436 C41.185211 228.61670589 38.67782118 231.12323207 36.17190361 233.63125229 C33.22576428 236.57926902 30.27470631 239.52227101 27.31969833 242.46139717 C26.23354298 243.5432949 25.14909862 244.62691334 24.06645775 245.71232796 C22.59394656 247.18804006 21.11547665 248.65750242 19.63523865 250.12545776 C18.39389742 251.36371968 18.39389742 251.36371968 17.1274786 252.62699699 C15.125 254.375 15.125 254.375 13.125 254.375 C12.795 255.365 12.465 256.355 12.125 257.375 C8.30080821 260.74783868 4.54275112 263.13056015 -0.5 264 C-7.0614241 262.78492146 -11.60209961 259.02301429 -16.22102356 254.40319824 C-16.71153613 253.91666008 -17.20204871 253.43012191 -17.7074253 252.92884016 C-19.33271447 251.31309821 -20.94715954 249.68695701 -22.56176758 248.06054688 C-23.73132618 246.89341865 -24.90152993 245.72693661 -26.07232666 244.56105042 C-29.23797469 241.40477859 -32.39417486 238.2392146 -35.54845643 235.07158852 C-38.85389918 231.75480322 -42.16707831 228.44576165 -45.47917175 225.13562012 C-51.03650267 219.57917097 -56.58783338 214.01678276 -62.13549805 208.45068359 C-68.54975488 202.01523493 -74.97282324 195.58868714 -81.40079957 189.16694403 C-87.58796638 182.9854698 -93.76945033 176.79834417 -99.94815636 170.6084137 C-102.57674783 167.97517751 -105.20721419 165.34383545 -107.8391819 162.713974 C-110.93578002 159.61925828 -114.02734151 156.51959703 -117.11506653 153.41602898 C-118.24934592 152.27750476 -119.38532872 151.14067471 -120.52312279 150.00566292 C-122.07472144 148.45728369 -123.62003734 146.9028943 -125.16389465 145.34680176 C-126.03050626 144.47813728 -126.89711786 143.60947281 -127.78999043 142.71448517 C-131.71240813 138.31333606 -132.45721858 134.74930593 -132.3046875 128.953125 C-131.5395831 124.36249859 -129.01278998 121.67275574 -125.875 118.375 C-125.03195313 117.4778125 -124.18890625 116.580625 -123.3203125 115.65625 C-118.47866513 110.66023127 -118.47866513 110.66023127 -115.875 108.375 C-115.215 108.375 -114.555 108.375 -113.875 108.375 C-113.61774769 107.78011874 -113.36049538 107.18523748 -113.09544754 106.57232952 C-111.76309907 104.17353028 -110.46275864 102.94748248 -108.34783936 101.21772766 C-103.40416909 97.02822829 -98.87152202 92.48932985 -94.30957031 87.89135742 C-92.89544209 86.47252242 -91.4813128 85.05368849 -90.06714296 83.63489497 C-88.56309283 82.12499643 -87.06028664 80.6138696 -85.55780792 79.10240746 C-82.41723709 75.94340826 -79.27220358 72.78887707 -76.12640381 69.63508606 C-67.1874072 60.67203478 -58.25444736 51.70298087 -49.32568359 42.72973633 C-44.38217961 37.76168382 -39.43508714 32.79723273 -34.48412204 27.83661538 C-31.35671106 24.70266988 -28.23385577 21.56427629 -25.11431837 18.42249429 C-22.72117801 16.01487371 -20.32151827 13.61378445 -17.92285156 11.21166992 C-16.63079552 9.90647148 -16.63079552 9.90647148 -15.31263733 8.5749054 C-14.51935532 7.78292755 -13.7260733 6.99094971 -12.90875244 6.17497253 C-12.22226749 5.48534518 -11.53578255 4.79571783 -10.82849503 4.08519268 C-7.37918645 1.06548585 -4.55610854 0.07096742 0 0 Z " fill="#F7BC15" transform="translate(348.875,393.625)"/>
<path d="M0 0 C0.66 0.66 1.32 1.32 2 2 C-3.28 7.28 -8.56 12.56 -14 18 C-14.66 17.34 -15.32 16.68 -16 16 C-10.72 10.72 -5.44 5.44 0 0 Z " fill="#269647" transform="translate(624,451)"/>
<path d="M0 0 C0.33 0.66 0.66 1.32 1 2 C-3.32893185 7.18419194 -7.76564995 11.72706118 -13 16 C-13.66 15.67 -14.32 15.34 -15 15 C-10.05 10.05 -5.1 5.1 0 0 Z " fill="#C82D37" transform="translate(399,659)"/>
<path d="M0 0 C0.99 0.33 1.98 0.66 3 1 C1.09236669 2.98861775 -0.82515911 4.96565718 -2.75 6.9375 C-3.55824219 7.78344727 -3.55824219 7.78344727 -4.3828125 8.64648438 C-4.91132813 9.18466797 -5.43984375 9.72285156 -5.984375 10.27734375 C-6.70705566 11.02359009 -6.70705566 11.02359009 -7.44433594 11.78491211 C-9.25704528 13.20077124 -10.75631224 13.59147949 -13 14 C-8.88380164 9.08064098 -4.59589638 4.47352044 0 0 Z " fill="#C82A34" transform="translate(480,578)"/>
<path d="M0 0 C0 4.91075921 -3.69530187 7.60955122 -7 11 C-8.94602014 12.76450416 -10.92714711 14.3821636 -13 16 C-13.66 15.67 -14.32 15.34 -15 15 C-10.05 10.05 -5.1 5.1 0 0 Z " fill="#C92D37" transform="translate(452,606)"/>
<path d="M0 0 C0.99 0.33 1.98 0.66 3 1 C-0.96 4.96 -4.92 8.92 -9 13 C-9.99 12.67 -10.98 12.34 -12 12 C-8.04 8.04 -4.08 4.08 0 0 Z " fill="#2D994D" transform="translate(657,418)"/>
<path d="M0 0 C0.66 0.66 1.32 1.32 2 2 C0.37660195 3.70884005 -1.29319053 5.37446717 -3 7 C-3.66 7 -4.32 7 -5 7 C-5.66 8.32 -6.32 9.64 -7 11 C-7.99 10.67 -8.98 10.34 -10 10 C-6.7 6.7 -3.4 3.4 0 0 Z " fill="#C72933" transform="translate(509,549)"/>
<path d="M0 0 C0 3.69942045 -0.85819127 4.40155392 -3.25 7.125 C-3.85328125 7.82882812 -4.4565625 8.53265625 -5.078125 9.2578125 C-7.10469267 11.09490433 -8.32969429 11.6100881 -11 12 C-7.49102731 7.81576108 -3.91939465 3.80411834 0 0 Z " fill="#249446" transform="translate(588,487)"/>
<path d="M0 0 C0.66 0.66 1.32 1.32 2 2 C1.38125 2.2475 0.7625 2.495 0.125 2.75 C-2.38895216 4.22879539 -2.8534051 5.37921165 -4 8 C-4.66 8.66 -5.32 9.32 -6 10 C-6.99 9.67 -7.98 9.34 -9 9 C-6.03 6.03 -3.06 3.06 0 0 Z " fill="#339C52" transform="translate(670,405)"/>
<path d="M0 0 C0.99 0.33 1.98 0.66 3 1 C-0.96 4.465 -0.96 4.465 -5 8 C-5.66 7.67 -6.32 7.34 -7 7 C-4.69 4.69 -2.38 2.38 0 0 Z " fill="#C82B35" transform="translate(460,598)"/>
<path d="M0 0 C0.66 0.33 1.32 0.66 2 1 C-0.41556126 4.19199167 -2.68003538 6.74716687 -6 9 C-6.66 8.67 -7.32 8.34 -8 8 C-5.36 5.36 -2.72 2.72 0 0 Z " fill="#389C55" transform="translate(679,396)"/>
<path d="M0 0 C0 3 0 3 -2.5 5.6875 C-3.325 6.450625 -4.15 7.21375 -5 8 C-5.66 7.67 -6.32 7.34 -7 7 C-4.69 4.69 -2.38 2.38 0 0 Z " fill="#C82E39" transform="translate(410,648)"/>
<path d="M0 0 C0.99 0.33 1.98 0.66 3 1 C0.03 3.475 0.03 3.475 -3 6 C-3.66 5.67 -4.32 5.34 -5 5 C-3.35 3.35 -1.7 1.7 0 0 Z " fill="#C82C36" transform="translate(416,642)"/>
<path d="M0 0 C0.33 0.99 0.66 1.98 1 3 C-0.65 4.32 -2.3 5.64 -4 7 C-4.66 6.67 -5.32 6.34 -6 6 C-4.02 4.02 -2.04 2.04 0 0 Z " fill="#C92E38" transform="translate(428,630)"/>
</svg>
